<?xml version="1.0" encoding="utf-8"?>
<!-- Generator: Adobe Illustrator 25.2.0, SVG Export Plug-In . SVG Version: 6.00 Build 0)  -->
<svg version="1.1" id="Layer_1" xmlns="http://www.w3.org/2000/svg" xmlns:xlink="http://www.w3.org/1999/xlink" x="0px" y="0px"
	 viewBox="0 0 550 550" style="enable-background:new 0 0 550 550;" xml:space="preserve">
<style type="text/css">
	.st0{fill:#FFFFFF;}
</style>
<g>
	<circle cx="274.8" cy="275" r="260.4"/>
	<g>
		<path class="st0" d="M190.6,389.2c4.5,2.8,8.2,5.4,12.2,7.5c5.7,3,10.2,2.1,14-3.2c2.4-3.3,4.6-7,6-10.9
			c4.1-11.6,7.7-23.3,12-36.5c-9.3-0.5-17.4-1.8-25.4-1.3C185,346.1,162,353,140.5,364c-8.7,4.5-16.5,11-24.2,17.3
			c-5.8,4.7-7.3,5.4-11.3-0.9c-4.9-7.7-9-15.9-13.4-23.9c-1.6-2.9-1-5.4,1.5-7.5c1.1-1,2-2.2,2.9-3.4c2-2.9,2.8-6.4,0.1-8.7
			c-2.1-1.8-5.6-3.2-8.3-2.8c-4.5,0.7-8.8,3-13.2,4.5c-6.9,2.2-8.5,1.8-11.6-4.5c-3.4-6.7-6.2-13.8-9.8-21.9
			c10.6,3.4,18.9,0.1,27.5-2.7c16.4-5.4,33.1-10,49.8-14.4c3.7-1,5.7-2.3,7.1-5.7c12.1-28.9,25-57.4,42.8-83.4
			c5.9-8.6,12.6-16.8,19-25.1c1.2-1.6,2.4-3.2,3.5-4.9c2.6-3.9,3.7-7.9,0.6-12c-2.5-3.2-7.5-3.8-12.4-1c-7.4,4.2-14.6,8.7-21.9,13.1
			c-7,4.2-13.9,8.3-21.5,12.9c-1.1-2.4-2.4-4.1-2.5-5.9c-0.8-9.3-1.4-18.6-1.9-27.8c-0.2-3.8,1.8-6.6,5.1-8.5
			c9.2-5.2,16.1-12.8,22.4-21.1c9.6-12.7,17-25.7,4.7-42.2c17.2,7.8,29.2,18.6,36.9,34.1c5,10.1,8.7,11.5,19.1,7.3
			c0.9-0.4,1.9-0.6,2.8-1.2c14.8-9.1,29.1-5.4,43.1,1.8c6.5,3.4,6.8,8,0.1,11.5c-7.3,3.9-15.2,6.8-22.7,10.2
			c-2.8,1.3-5.8,2.7-8.1,4.7c-19.5,16.3-37.3,34.2-54.1,53c0.1,0.6,0.1,1,0.2,1.3c5.5,8.7,5.6,8.9,14.8,4.4
			c10.7-5.3,21.2-11,31.9-16.5c5.5-2.9,11.2-2.1,16.4,0.3c12.8,6,20.1,17.1,25.5,29.5c0.8,1.9-0.3,4.8-0.9,7.2
			c-4.3,17.4-8.7,34.7-13.2,52.6c30.9,7.6,57.2,22.1,82.9,39.9c1.8-8,3.9-15.2,5-22.5c1.6-11,2.8-22.1,3.8-33.2
			c0.4-4.6-0.2-9.3-5-11.7c-4.8-2.4-8.9,0.4-12.2,3.4c-8.6,7.7-18.6,12.9-29.4,16.6c-11.2,3.9-12.7,2.6-13.3-9.3
			c-0.2-4.9,0.6-8.5,4.8-12.1c3.8-3.2,6.5-8.1,8.6-12.7c14.6-31.8,27.5-64.2,37.9-97.7c0.6-1.9,1.1-3.9,1.4-5.8
			c1.6-9.5-2.4-16.7-11.4-20.3c-2.4-1-4.9-1.7-7.1-3c11.7,1.4,23.5,0.7,32.5,11.7c9.5,11.6,11.8,23.6,6.3,37.1
			c-5.2,12.8-10.9,25.4-16.3,38.1c-1.2,2.9-3.2,5.9-3.2,8.8c0,2.9,1.2,6.9,3.3,8.4c1.8,1.2,6.2,0.4,8.4-1c9-5.7,17.5-12.1,26.3-18.1
			c2.7-1.8,5.9-3.1,8.9-4.4c4.5-1.9,8.6-2.2,13,1.4c3.1,2.5,7.3,3.9,11.2,5.2c3.4,1.1,4.3,3.1,4,6.4c-0.7,5.7-3.6,9.3-9.3,10.9
			c-16.5,4.7-31.4,12.8-45.8,21.9c-1.2,0.7-2,3.4-1.7,4.8c8,29.8,7.2,59-4.9,87.6c-1.3,3,0.2,4.2,2.2,5.7
			c16.9,13.3,35.7,23.3,55.3,31.8c12.2,5.3,24.8,9.8,37.5,13.6c14.4,4.4,24.9,13.5,34.9,25.8c-6.6,0.9-12.2,2.1-17.9,2.3
			c-18.1,0.6-36.3,1-54.5,1.3c-7.8,0.1-14.8-2.4-20.5-7.8c-15.1-14.1-30-28.4-45-42.6c-1.2-1.1-2.3-2.4-4.4-4.6
			c-2.1,2.6-3.9,5.2-6.2,7.3c-10.4,10.2-21.9,18.5-37,20.2c-10.3,1.2-19.6-1.6-29.2-6.6c6.9-1.3,13.1-2.1,19-3.8
			c17.8-5,30.4-16.7,39.2-32.6c0.7-1.2-0.2-4.1-1.3-5.3c-16.6-19.2-38.2-30.2-62.5-36.2c-3.1-0.8-6.2-1.3-9.3-2
			c-0.3-0.1-0.6,0.2-1.5,0.4c-2.8,12.5-5.7,25.3-8.6,38.3c12.8,4.4,27.2,4.5,38.2,16c-15,1.6-27.1-4-39.9-7.6
			c-9.7,32.5-18,65.4-43,91.9C202.8,423,197.5,406.3,190.6,389.2z M212.6,218.6c1.9,2.1,3.8,3.9,5.4,6c3.5,4.6,7.4,9.1,10.1,14.2
			c3.4,6.5,2.2,13.1-2.9,18.4c-6.7,7-15.4,9.1-25.2,10.2c2.6-4.3,5-7.8,7-11.6c3.5-6.8,2.7-13.9-2.3-19.1
			c-6.5-6.8-14.2-12.3-21.3-18.4c-9,8.1-12.8,17.8-14.5,28.3c-2.3,14.1-3.3,28.5-12.2,40.6c-0.1,0.2,0.1,0.6,0.1,1.3
			c11.8-1.4,23.5-2.6,35.3-4.3c17-2.4,33.9-5.1,50.9-7.5c3.2-0.4,4.6-1.6,5.1-4.8c1.1-7.9,2.8-15.7,3.6-23.7c1-9.4,2-18.9,2-28.4
			c0-9-4.9-12.6-12.8-10.2C231.6,212.4,222.5,215.4,212.6,218.6z M193.4,337.4c-2.1-5.3-3.9-9.5-5.4-13.9c-0.5-1.6-0.9-3.9-0.2-5.1
			c4.7-7.2,1.8-13.5-2.3-19.4c-0.9-1.3-3.7-2.5-5-2.1c-11.1,3.5-22.2,7.1-33,11.2c-2.9,1.1-5.8,3.6-7.3,6.2
			c-8.5,14.5-16.6,29.2-24.8,43.9c-0.6,1.1-1,2.2-1.5,3.4c0.2,0.4,0.5,0.7,0.7,1.1C138.3,346.5,164.5,339.1,193.4,337.4z
			 M245.9,287.9c-13.8,1.6-26.9,3.1-40,4.9c-0.8,0.1-1.8,2.8-1.7,4.2c0.3,5.5,1.4,10.9,1.6,16.4c0.3,7.9,0.1,15.9,0.1,23.9
			c10.3,0,20.5,0,30.9,0C239.6,321.6,242.6,305.5,245.9,287.9z"/>
	</g>
</g>
</svg>
